<?xml version="1.0" encoding="utf-8" ?><svg xmlns="http://www.w3.org/2000/svg" xmlns:xlink="http://www.w3.org/1999/xlink" width="56800" height="56800" viewBox="0 0 56800 56800"><path fill="#010101" transform="scale(55.469 55.469)" d="M602.861 275.187C624.215 274.523 641.178 288.448 645.959 309.08L701.874 309.047C725.586 309.039 741.155 308.101 764.143 316.283C778.877 321.473 792.192 330.039 803.021 341.296C838.698 378.159 832.979 428.343 832.978 475.796L832.964 575.812C832.954 587.125 831.725 602.608 835.03 613.352C836.762 618.984 849.341 617.46 853.654 617.856C870.998 619.447 902.134 611.225 911.681 630.887C918.029 643.959 912.709 663.072 898.039 668.388C866.911 679.33 813.906 687.403 783.197 676.709C783.03 694.287 775.642 711.535 764.316 724.821C750.366 741.108 730.414 751.049 709.011 752.377C666.273 755.429 629.95 722.504 626.943 679.988L437.125 679.98L379.878 679.961C378.993 696.741 373.218 711.425 362.486 724.302C317.977 777.707 228.323 751.856 221.96 681.508C214.456 682.155 205.313 681.943 197.749 682.009C175.293 682.206 151.612 682.037 134.754 664.894C118.163 648.022 119.785 630.085 119.802 608.411L119.776 575.237C119.784 550.931 118.302 533.425 134.147 512.902C150.148 492.177 171.569 485.551 194.324 475.366C204.535 470.796 216.767 463.291 225.121 455.782C237.532 444.628 249.105 429.675 259.679 416.647C280.174 391.393 300.028 365.716 322.809 342.417C336.276 328.643 352.813 318.111 371.372 312.724C386.392 308.365 403.201 309.061 418.819 309.059L454.061 309.061L562.417 309.118C569.246 289.439 581.943 277.463 602.861 275.187ZM563.66 309.996L452.51 310.032L417.436 310.007C402.863 309.981 388.489 309.343 374.315 312.985C354.335 317.994 336.13 329.748 321.99 344.576C299.891 367.75 279.49 393.449 259.525 418.415C240.771 441.867 224.554 462.847 196.424 475.488C174.596 485.297 150.799 493.061 135.639 512.603C120.134 532.196 120.837 548.389 120.902 571.773L120.9 603.627C120.851 626.279 118.394 647.505 135.969 664.603C155.226 683.338 186.586 681.33 211.42 680.986C215.252 680.927 219.081 680.72 222.897 680.364C233.422 775.326 370.003 775.641 379.116 678.989L435.875 679.009L627.91 678.981C629.341 699.614 637.741 718.594 653.48 732.253C668.92 745.881 689.218 752.68 709.751 751.102C750.167 748.186 781.216 716.039 782.196 675.477C816.643 685.848 865.815 679.05 899.484 666.267C913.015 659.986 916.543 643.544 910.388 630.813C907.517 624.874 902.407 622.215 895.563 619.789C884.177 615.752 839.578 623.789 834.339 614.333C830.891 608.108 831.956 583.297 831.965 575.431L831.993 474.214C831.977 427.681 837.501 377.815 801.956 341.574C769.381 308.36 734.261 310.021 692.091 310.021L644.716 310.124C643.514 291.205 621.489 274.148 602.549 276.2C584.322 277.611 567.091 291.878 563.66 309.996Z"/><path fill="#1C001A" transform="scale(55.469 55.469)" d="M602.549 276.2C621.489 274.148 643.514 291.205 644.716 310.124L692.091 310.021C734.261 310.021 769.381 308.36 801.956 341.574C837.501 377.815 831.977 427.681 831.993 474.214L831.965 575.431C831.956 583.297 830.891 608.108 834.339 614.333C839.578 623.789 884.177 615.752 895.563 619.789C902.407 622.215 907.517 624.874 910.388 630.813C916.543 643.544 913.015 659.986 899.484 666.267C865.815 679.05 816.643 685.848 782.196 675.477C781.216 716.039 750.167 748.186 709.751 751.102C689.218 752.68 668.92 745.881 653.48 732.253C637.741 718.594 629.341 699.614 627.91 678.981L435.875 679.009L379.116 678.989C370.003 775.641 233.422 775.326 222.897 680.364C219.081 680.72 215.252 680.927 211.42 680.986C186.586 681.33 155.226 683.338 135.969 664.603C118.394 647.505 120.851 626.279 120.9 603.627L120.902 571.773C120.837 548.389 120.134 532.196 135.639 512.603C150.799 493.061 174.596 485.297 196.424 475.488C224.554 462.847 240.771 441.867 259.525 418.415C279.49 393.449 299.891 367.75 321.99 344.576C336.13 329.748 354.335 317.994 374.315 312.985C388.489 309.343 402.863 309.981 417.436 310.007L452.51 310.032L563.66 309.996C567.091 291.878 584.322 277.611 602.549 276.2ZM137.814 533.204C149.159 533.835 160.885 533.26 172.109 533.39C183.351 533.451 197.17 532.019 205.254 541.759C216.173 554.913 208.921 574.771 196.607 584.279C178.135 598.54 155.259 598.56 133.126 598.641C133.238 616.685 130.217 642.11 143.855 655.286C158.542 669.477 179.006 668.101 197.568 668.035C194.175 648.991 202.067 626.571 212.832 611.064C253.168 552.96 350.379 555.45 401.126 502.661C392.551 493.421 379.967 493.226 368.227 493.007L326.773 492.051C313.367 491.867 297.827 491.976 284.695 489.856C275.239 488.33 265.023 479.768 266.077 469.58C266.762 458.856 276.016 449.415 282.702 441.373C289.217 433.514 295.785 425.698 302.404 417.926C328.814 386.636 341.915 362.395 387.045 365.897C407.505 367.484 431.354 360.046 438.087 389.404C439.906 397.755 439.205 408.326 439.218 416.935L439.131 455.69C438.528 479.478 431.486 485.69 418.631 503.032C428.874 522.2 427.366 530.702 427.154 551.992L427.111 592.963C427.123 612.913 422.306 659.127 449.352 665.623C464.62 669.29 488.18 665.788 504.353 666.953C545.526 667.457 586.925 666.518 627.976 667.016C629.217 643.895 638.76 627.063 656.164 611.963C687.437 584.829 736.069 588.662 763.329 619.543C771.361 628.642 777.328 639.482 780.324 651.328C781.055 654.214 781.344 657.575 781.941 660.615C802.065 674.029 849.471 665.328 872.4 661.802C878.754 660.825 894.078 657.156 898.619 651.057C907.412 632.742 889.144 630.977 879.375 630.943L855.688 631.056C827.292 631.197 818.767 627.623 819.732 596.523C819.959 589.193 819.691 580.102 819.685 572.59L819.72 484.434C819.685 452.556 822.235 409.232 811.465 379.901C805.257 363.289 793.944 349.071 779.149 339.292C753.371 322.349 729.791 322.513 700.582 322.491L656.539 322.475L509.391 322.418L430.399 322.4L407.285 322.363C404.287 322.361 396.448 322.263 393.776 322.691C359.892 326.513 342.479 339.315 320.431 364.947C303.549 384.572 287.333 404.874 270.901 424.89C249.606 451.713 229.816 475.293 197.284 489.107C174.443 498.806 148.507 508.564 137.814 533.204ZM293.885 606.696C257.79 610.212 240.646 633.402 235.814 667.597C254.585 663.429 255.652 654.776 268.822 642.823C283.753 629.272 306.94 628.552 323.521 639.77C343.309 653.158 348.216 674.794 344.213 697.144C340.582 713.049 331.842 727.361 317.523 735.544C316.267 736.262 314.637 736.695 313.768 737.803C319.274 738.589 336.236 729.712 340.738 726.183C387.211 689.761 366.757 613.288 307.281 606.876C302.535 606.364 298.566 606.065 293.885 606.696ZM749.608 685.368C747.353 708.12 741.919 718.383 725.372 733.783C739.635 729.989 752.817 718.402 759.724 705.819C782.773 663.828 758.112 610.403 708.392 607.851C705.815 607.718 700.686 607.658 698.336 608.175C679.701 610.829 666.66 618.5 654.831 633.327C651.207 637.869 638.413 661.903 643 665.902C654.726 666.272 662.931 653.421 669.592 645.851C678.162 636.021 690.721 630.601 703.752 631.108C732.878 632.079 750.918 657.599 749.608 685.368ZM605.394 289.181C595.495 290.247 588.763 292.344 582.12 300.54C579.829 303.364 577.926 306.482 576.461 309.809L604.625 309.886C613.717 309.875 623.17 309.994 632.23 309.717C625.448 296.948 621.261 290.553 605.394 289.181ZM185.45 575.569C192.871 570.074 200.765 559.715 194.87 550.585C191.528 545.409 173.917 547.001 167.827 546.983C156.942 546.95 145.804 546.885 134.956 547.151C133.636 559.304 134.733 573.133 133.969 585.678C150.961 585.653 170.666 585.737 185.45 575.569ZM292.281 645.61C273.175 649.965 272.068 661.735 257.809 672.371C251.625 676.983 243.544 679.052 236.159 680.706C239.106 699.185 245.054 712.62 260.426 724.583C263.828 727.232 273.051 731.771 277.035 731.764C300.447 737.389 324.835 720.883 330.25 697.878C337.008 669.161 324.33 643.8 292.281 645.61ZM697.56 645.677C676.976 649.735 676.488 666.524 659.497 675.359C653.159 678.655 648.232 679.052 641.506 680.446C642.832 704.491 658.018 725.152 681.393 731.7C693.703 733.653 704.8 732.066 714.963 724.514C734.529 709.974 742.692 678.478 727.606 658.015C719.755 647.367 710.065 645.126 697.56 645.677ZM283.116 462.216C271.061 481.055 299.458 477.687 310.116 477.857L346.669 478.729C352.631 478.832 358.694 478.829 364.658 478.969C383.381 479.41 395.006 478.821 409.91 491.476C429.291 471.895 425.559 452.12 425.813 426.882C425.914 416.803 426.263 406.035 425.296 396.028C424.017 382.798 417.286 380.218 405.291 379.218C384.805 378.842 358.651 375.531 343.375 392.097C322.547 414.683 303.778 439.428 283.116 462.216ZM222.183 666.997C221.622 646.278 233.025 625.423 247.809 611.548C255.009 605.769 261.184 601.776 269.737 598.242C318.473 578.099 377.037 612.587 379.676 666.264C394.168 665.591 411.978 665.93 426.693 665.988C412.806 648.323 414.056 633.732 414.09 612.37L414.197 561.464C414.229 548.294 415.664 525.228 408.763 513.928C356.43 576.563 209.294 562.555 210.902 667.132L222.183 666.997Z"/><path fill="#010101" transform="scale(55.469 55.469)" d="M393.776 322.691C396.448 322.263 404.287 322.361 407.285 322.363L430.399 322.4L509.391 322.418L656.539 322.475L700.582 322.491C729.791 322.513 753.371 322.349 779.149 339.292C793.944 349.071 805.257 363.289 811.465 379.901C822.235 409.232 819.685 452.556 819.72 484.434L819.685 572.59C819.691 580.102 819.959 589.193 819.732 596.523C818.767 627.623 827.292 631.197 855.688 631.056L879.375 630.943C889.144 630.977 907.412 632.742 898.619 651.057C894.078 657.156 878.754 660.825 872.4 661.802C849.471 665.328 802.065 674.029 781.941 660.615C781.344 657.575 781.055 654.214 780.324 651.328C777.328 639.482 771.361 628.642 763.329 619.543C736.069 588.662 687.437 584.829 656.164 611.963C638.76 627.063 629.217 643.895 627.976 667.016C586.925 666.518 545.526 667.457 504.353 666.953C488.18 665.788 464.62 669.29 449.352 665.623C422.306 659.127 427.123 612.913 427.111 592.963L427.154 551.992C427.366 530.702 428.874 522.2 418.631 503.032C431.486 485.69 438.528 479.478 439.131 455.69L439.218 416.935C439.205 408.326 439.906 397.755 438.087 389.404C431.354 360.046 407.505 367.484 387.045 365.897C341.915 362.395 328.814 386.636 302.404 417.926C295.785 425.698 289.217 433.514 282.702 441.373C276.016 449.415 266.762 458.856 266.077 469.58C265.023 479.768 275.239 488.33 284.695 489.856C297.827 491.976 313.367 491.867 326.773 492.051L368.227 493.007C379.967 493.226 392.551 493.421 401.126 502.661C350.379 555.45 253.168 552.96 212.832 611.064C202.067 626.571 194.175 648.991 197.568 668.035C179.006 668.101 158.542 669.477 143.855 655.286C130.217 642.11 133.238 616.685 133.126 598.641C155.259 598.56 178.135 598.54 196.607 584.279C208.921 574.771 216.173 554.913 205.254 541.759C197.17 532.019 183.351 533.451 172.109 533.39C160.885 533.26 149.159 533.835 137.814 533.204C148.507 508.564 174.443 498.806 197.284 489.107C229.816 475.293 249.606 451.713 270.901 424.89C287.333 404.874 303.549 384.572 320.431 364.947C342.479 339.315 359.892 326.513 393.776 322.691ZM139.552 531.984C151.575 533.106 164.256 531.853 176.351 532.314C182.019 532.53 187.878 532.02 193.428 533.625C219.748 541.427 214.657 572.152 196.825 585.558C178.47 599.356 155.913 599.952 134.245 599.939C134.344 618.028 131.212 641.586 144.957 654.8C158.97 668.271 178.53 667.216 196.464 667.058C193.597 647.735 201.768 624.305 213.223 608.777C233.812 580.868 264.259 568.974 295.488 557.004C317.459 548.583 340.044 540.506 361.302 530.298C370.904 525.687 380.206 519.581 388.518 512.919C392.247 509.929 396.967 504.943 400.465 502.385C396.808 500.13 391.539 496.595 387.45 495.736C376.003 493.332 363.896 494.179 352.253 493.82C336.584 493.337 320.875 493.089 305.21 492.668C290.757 492.279 270.892 492.493 265.71 475.48C263.951 469.687 265.872 462.071 269.209 457.154C274.947 448.703 282.329 440.457 288.88 432.511C298.184 421.226 307.597 410.031 317.118 398.929C348.203 363.012 356.577 364.419 402.743 364.974C439.903 365.421 440.147 383.987 440.13 414.12L440.132 449.625C440.072 466.972 439.007 476.22 428.741 491.411C426.308 495.011 422.184 499.872 420.059 503.267C430.689 524.071 428.393 535.822 428.242 558.516L428.197 608.123C428.192 620.589 427.32 633.791 431.474 645.75C434.552 654.609 439.844 661.298 449.015 664.411C458.561 667.651 497.199 665.947 509.84 665.976L627.172 665.998C628.703 623.991 668.698 590.207 709.648 592.965C729.774 594.32 748.59 602.059 762.337 616.996C768.945 624.065 774.241 632.254 777.977 641.18C779.31 644.376 780.677 647.836 781.356 651.242C781.82 653.569 781.886 656.111 782.585 658.37C782.836 659.179 783.336 660.108 783.911 660.723C787.302 664.342 801.975 666.217 807.094 666.474C825.607 667.405 883.463 663.63 896.141 652.064C898.458 649.95 899.898 647.207 899.94 644.034C899.981 640.973 898.865 638.347 897.348 635.758L896.737 635.409C876.758 624.227 827.4 645.033 820.007 616.022C817.498 606.175 818.602 582.067 818.62 570.866L818.589 473.614C818.579 452.224 819.32 427.385 816.905 406.504C815.877 398.259 813.983 390.146 811.255 382.298C804.638 363.133 791.236 347.052 773.579 337.088C751.007 324.288 732.116 323.719 707.215 323.668L670.797 323.641L558.65 323.539L450.686 323.536L416.081 323.524C410.895 323.525 402.257 323.293 397.373 323.717C363.277 325.454 343.619 339.449 321.926 364.793C304.454 385.206 287.334 406.168 270.446 427.034C252.321 449.429 235.482 470.654 209.428 484.484C185.062 497.417 152.176 504.508 139.552 531.984Z"/><path fill="#010101" transform="scale(55.469 55.469)" d="M591.678 368.615C600.358 368.278 639.481 367.418 645.631 369.767C650.418 371.595 654.09 375.757 655.796 380.532C658.385 387.776 657.052 418.114 656.977 427.004C656.944 431.023 656.16 436.065 657.85 439.785C663.856 445.335 705.175 439.782 715.288 442.705C730.996 446.154 729.629 463.164 728.868 475.547C728.191 486.564 733.442 514.703 719.357 518.387C706.095 521.856 685.547 519.692 671.472 520.051C652.313 519.06 658.511 523.505 656.917 536.963C654.783 554.974 664.627 581.332 645.995 591.377C640.121 593.034 601.245 592.986 593.711 592.3C591.214 592.072 588.759 591.557 586.47 590.505C582.405 588.638 579.666 585.182 578.251 580.99C575.56 573.018 577.013 545.573 577.062 535.992C577.081 532.19 577.593 527.593 576.167 523.998C575.354 521.948 573.79 520.632 571.667 520.09C568.175 519.199 563.354 519.987 559.757 520.09C551.7 520.322 525.586 521.517 519.523 518.613C515.805 516.832 512.216 513.488 510.954 509.475C508.938 503.064 509.065 464.12 510.089 456.544C510.4 454.246 511.099 452.244 512.259 450.234C513.816 447.537 515.604 445.564 518.432 444.232C526.479 440.446 551.132 442.125 560.668 442.168C564.561 442.186 569.087 442.574 572.835 441.471C574.133 441.088 575.515 440.478 576.21 439.228C579.964 432.481 573.232 387.458 579.587 376.883C582.402 372.198 586.555 370.005 591.678 368.615ZM646.522 589.92C657.296 583.653 656.184 575.964 656.139 564.959L655.965 540.519C655.819 526.104 652.58 517.294 670.272 518.859C678.811 519.304 688.987 518.546 697.279 519.075C705.274 519.585 725.362 519.767 726.92 509.177C728.218 500.355 729.309 458.375 726.103 452.273C723.899 448.079 720.042 444.998 715.465 443.774C708.094 441.755 682.565 443.073 673.335 443.151C669.639 443.182 665.519 443.621 661.893 442.897C659.817 442.483 657.845 441.69 656.758 439.766C655.182 436.978 655.828 431.837 655.866 428.689C655.989 418.558 657.458 389.281 654.978 381.485C653.516 376.887 650.425 372.684 645.768 370.987C638.038 368.169 602.227 369.55 591.797 369.654C586.925 370.855 583.299 372.782 580.573 377.207C579.265 379.349 578.429 381.746 578.119 384.236C577.657 387.82 577.911 395.39 577.936 399.342L578.089 426.624C578.156 442.356 578.71 443.577 561.751 443.178C555.765 443.037 549.234 442.957 543.138 443.001C530.808 443.089 512.595 440.184 511.118 457.419C510.863 464.92 510.52 473.222 510.864 480.684C511.25 489.054 510.027 500.086 511.571 508.014C513.879 519.861 528.311 519.098 537.294 519.099C548.862 519.101 561.003 518.432 572.465 519.439C574.226 519.733 577.27 521.325 577.442 523.272C578.675 538.742 577.822 555.778 577.95 571.268C578.036 581.743 582.759 591.703 594.238 591.053C604.554 590.469 638.668 593.092 646.522 589.92Z"/><path fill="#1C001A" transform="scale(55.469 55.469)" d="M591.797 369.654C602.227 369.55 638.038 368.169 645.768 370.987C650.425 372.684 653.516 376.887 654.978 381.485C657.458 389.281 655.989 418.558 655.866 428.689C655.828 431.837 655.182 436.978 656.758 439.766C657.845 441.69 659.817 442.483 661.893 442.897C665.519 443.621 669.639 443.182 673.335 443.151C682.565 443.073 708.094 441.755 715.465 443.774C720.042 444.998 723.899 448.079 726.103 452.273C729.309 458.375 728.218 500.355 726.92 509.177C725.362 519.767 705.274 519.585 697.279 519.075C688.987 518.546 678.811 519.304 670.272 518.859C652.58 517.294 655.819 526.104 655.965 540.519L656.139 564.959C656.184 575.964 657.296 583.653 646.522 589.92C638.668 593.092 604.554 590.469 594.238 591.053C582.759 591.703 578.036 581.743 577.95 571.268C577.822 555.778 578.675 538.742 577.442 523.272C577.27 521.325 574.226 519.733 572.465 519.439C561.003 518.432 548.862 519.101 537.294 519.099C528.311 519.098 513.879 519.861 511.571 508.014C510.027 500.086 511.25 489.054 510.864 480.684C510.52 473.222 510.863 464.92 511.118 457.419C512.595 440.184 530.808 443.089 543.138 443.001C549.234 442.957 555.765 443.037 561.751 443.178C578.71 443.577 578.156 442.356 578.089 426.624L577.936 399.342C577.911 395.39 577.657 387.82 578.119 384.236C578.429 381.746 579.265 379.349 580.573 377.207C583.299 372.782 586.925 370.855 591.797 369.654ZM523.81 501.833C525.112 503.77 526.543 505.722 529.104 505.86C541.312 506.517 554.629 506.285 566.861 505.973C591.054 505.355 591.266 515.558 591.198 535.955L591.074 561.316C590.945 573.983 588.782 578.919 604.009 578.232C615.484 577.715 627.792 578.733 639.34 577.962C641.579 576.355 642.364 575.398 642.681 572.517C643.213 567.67 642.993 562.216 642.959 557.295L642.814 532.17C642.801 527.176 642.382 521.651 643.892 516.841C644.747 514.119 646.597 511.762 648.799 509.985C650.988 508.218 653.574 507.086 656.317 506.507C667.208 504.21 706.011 508.703 712.091 504.792C713.878 503.643 714.381 501.558 714.621 499.58C715.253 494.363 714.979 462.884 713.88 459.15C712.512 457.564 712.227 457.289 710.579 456.01C697.784 456.201 684.987 456.27 672.19 456.215C667.345 456.213 661.209 456.921 656.498 455.982C653.236 455.332 649.452 452.805 647.119 450.487C645.79 449.166 644.582 447.563 644.011 445.758C640.318 434.096 646.052 390.358 640.994 384.363C639.121 382.143 633.975 381.942 631.235 381.884C619.75 381.64 607.567 381.393 596.136 382.137C594.388 382.771 593.182 383.218 592.326 385.022C588.026 394.08 594.403 435.999 589.617 446.998C588.021 450.665 584.322 453.395 580.678 454.795C572.982 457.75 549.175 456.223 539.756 456.096C536.384 456.05 532.704 455.721 529.364 456.252C527.5 456.548 525.339 457.178 524.521 459.062C522.679 463.298 523.774 495.058 523.81 501.833Z"/><path fill="#010101" transform="scale(55.469 55.469)" d="M596.519 381.115C603.747 380.72 611.122 380.99 618.366 380.971C624.021 380.956 630.016 380.539 635.633 381.14C638.182 381.413 640.718 381.877 642.233 384.145C646.804 390.985 642.145 430.407 644.251 441.729C644.795 444.649 645.979 447.332 647.913 449.598C649.933 452.004 652.674 453.696 655.73 454.423C659.746 455.411 665.783 455.122 670.009 455.091L694.62 454.869C702.21 454.807 710.34 453.06 715.383 459.343C716.246 464.863 716.971 501.381 714.427 504.371C713.068 505.968 710.816 506.676 708.811 506.97C704.638 507.58 700.056 507.178 695.838 507.152C684.307 507.081 670.651 506.153 659.451 507.03C654.037 507.454 648.572 509.731 645.937 514.754C642.317 521.655 644.012 551.494 644.107 561.086C644.151 565.512 644.736 570.874 643.403 575.108C643.011 576.354 642.142 577.332 641.29 578.29C636.861 579.49 603.607 579.503 598.172 579.147C595.631 578.98 593.024 578.652 591.535 576.303C587.536 569.995 591.713 530.672 589.697 519.854C589.178 517.068 588.108 514.278 586.144 512.185C583.966 509.864 580.872 508.361 577.801 507.65C573.064 506.554 567.853 506.965 563.01 506.984C552.991 507.026 542.799 507.594 532.799 507.255C529.836 507.154 526.373 506.78 524.3 504.381C523.194 503.101 522.853 501.523 522.667 499.882C522.148 495.303 522.558 490.395 522.572 485.772C522.599 476.867 522.477 467.935 523.004 459.042C524.003 457.592 524.933 456.305 526.606 455.588C534.012 452.417 568.246 457.548 579.251 454.124C583.105 452.925 587.046 450.078 588.687 446.29C593.224 435.811 586.815 393.004 591.54 384.445C592.698 382.346 594.301 381.663 596.519 381.115ZM523.81 501.833C525.112 503.77 526.543 505.722 529.104 505.86C541.312 506.517 554.629 506.285 566.861 505.973C591.054 505.355 591.266 515.558 591.198 535.955L591.074 561.316C590.945 573.983 588.782 578.919 604.009 578.232C615.484 577.715 627.792 578.733 639.34 577.962C641.579 576.355 642.364 575.398 642.681 572.517C643.213 567.67 642.993 562.216 642.959 557.295L642.814 532.17C642.801 527.176 642.382 521.651 643.892 516.841C644.747 514.119 646.597 511.762 648.799 509.985C650.988 508.218 653.574 507.086 656.317 506.507C667.208 504.21 706.011 508.703 712.091 504.792C713.878 503.643 714.381 501.558 714.621 499.58C715.253 494.363 714.979 462.884 713.88 459.15C712.512 457.564 712.227 457.289 710.579 456.01C697.784 456.201 684.987 456.27 672.19 456.215C667.345 456.213 661.209 456.921 656.498 455.982C653.236 455.332 649.452 452.805 647.119 450.487C645.79 449.166 644.582 447.563 644.011 445.758C640.318 434.096 646.052 390.358 640.994 384.363C639.121 382.143 633.975 381.942 631.235 381.884C619.75 381.64 607.567 381.393 596.136 382.137C594.388 382.771 593.182 383.218 592.326 385.022C588.026 394.08 594.403 435.999 589.617 446.998C588.021 450.665 584.322 453.395 580.678 454.795C572.982 457.75 549.175 456.223 539.756 456.096C536.384 456.05 532.704 455.721 529.364 456.252C527.5 456.548 525.339 457.178 524.521 459.062C522.679 463.298 523.774 495.058 523.81 501.833Z"/><path fill="#010101" transform="scale(55.469 55.469)" d="M408.804 512.414C421.958 525.648 411.134 619.012 416.811 643.814C418.814 652.568 422.983 660.263 428.886 666.989L378.719 667.092C377.867 649.83 371.156 633.375 359.693 620.441C345.646 604.575 324.882 594.871 303.77 593.596C283.188 592.349 262.963 599.391 247.606 613.151C246.755 613.877 245.921 614.623 245.104 615.386C231.164 628.222 223.752 649.392 222.969 668.014L209.868 668.091C208.966 598.268 269.031 581.613 322.873 561.276C348.424 551.625 391.836 534.519 408.804 512.414ZM210.902 667.132L222.183 666.997C221.622 646.278 233.025 625.423 247.809 611.548C255.009 605.769 261.184 601.776 269.737 598.242C318.473 578.099 377.037 612.587 379.676 666.264C394.168 665.591 411.978 665.93 426.693 665.988C412.806 648.323 414.056 633.732 414.09 612.37L414.197 561.464C414.229 548.294 415.664 525.228 408.763 513.928C356.43 576.563 209.294 562.555 210.902 667.132Z"/><path fill="#010101" transform="scale(55.469 55.469)" d="M282.378 462.129C286.481 456.162 300.266 440.768 305.556 434.506L326.907 409.168C332.667 402.307 339.99 392.656 346.956 387.545C360.784 377.4 373.702 377.616 389.924 377.95C395.879 378.072 402.128 377.662 408.047 378.576C433.317 379.417 425.453 407.958 426.67 425.185C427.413 435.698 426.167 447.505 426.37 458.114C425.918 470.617 419.276 483.915 410.034 492.433C404.27 488.382 395.732 482.29 388.561 481.476C361.953 478.462 334.727 480.384 307.95 478.767C300.289 478.304 291.012 479.509 283.813 477.067C276.704 474.655 279.06 466.587 282.378 462.129ZM409.91 491.476C429.291 471.895 425.559 452.12 425.813 426.882C425.914 416.803 426.263 406.035 425.296 396.028C424.017 382.798 417.286 380.218 405.291 379.218C384.805 378.842 358.651 375.531 343.375 392.097C322.547 414.683 303.778 439.428 283.116 462.216C271.061 481.055 299.458 477.687 310.116 477.857L346.669 478.729C352.631 478.832 358.694 478.829 364.658 478.969C383.381 479.41 395.006 478.821 409.91 491.476Z"/><path fill="#010101" transform="scale(55.469 55.469)" d="M282.378 462.129C286.481 456.162 300.266 440.768 305.556 434.506L326.907 409.168C332.667 402.307 339.99 392.656 346.956 387.545C360.784 377.4 373.702 377.616 389.924 377.95C395.879 378.072 402.128 377.662 408.047 378.576L405.291 379.218C384.805 378.842 358.651 375.531 343.375 392.097C322.547 414.683 303.778 439.428 283.116 462.216L282.378 462.129Z"/><path fill="#010101" transform="scale(55.469 55.469)" d="M293.885 606.696C298.566 606.065 302.535 606.364 307.281 606.876C366.757 613.288 387.211 689.761 340.738 726.183C336.236 729.712 319.274 738.589 313.768 737.803C314.637 736.695 316.267 736.262 317.523 735.544C331.842 727.361 340.582 713.049 344.213 697.144C348.216 674.794 343.309 653.158 323.521 639.77C306.94 628.552 283.753 629.272 268.822 642.823C255.652 654.776 254.585 663.429 235.814 667.597C240.646 633.402 257.79 610.212 293.885 606.696ZM236.783 666.599C255.798 660.788 253.016 655.765 265.932 644.054C300.626 612.595 348.595 641.546 346.572 685.941C345.033 707.806 338.537 719.836 322.056 734.133L319.79 736.087C338.662 728.101 351.928 719.46 360.121 699.491C367.067 682.595 366.954 663.622 359.808 646.81C352.689 630.06 340.941 619.098 324.129 612.105C316.188 608.803 303.165 606.632 294.612 607.786C275.344 609.287 258.321 617.75 247.808 634.437C240.919 645.371 239.061 654.169 236.783 666.599Z"/><path fill="#010101" transform="scale(55.469 55.469)" d="M703.985 606.721C715.38 605.822 730.642 610.959 740.293 616.924C770.845 635.808 778.124 680.552 758.23 709.902C748.693 724.257 733.787 734.178 716.863 737.433C736.765 728.083 745.688 708.882 748.44 688.112C748.876 677.079 748.058 669.492 743.787 659.313C731.73 630.577 692.931 622.135 671.347 645.425C664.861 652.424 660.272 661.281 650.979 664.644C648.424 665.568 643.391 668.251 640.846 667.295C640.29 665.498 641.262 663.613 641.624 661.655C647.598 629.393 671.951 608.803 703.985 606.721ZM749.608 685.368C747.353 708.12 741.919 718.383 725.372 733.783C739.635 729.989 752.817 718.402 759.724 705.819C782.773 663.828 758.112 610.403 708.392 607.851C705.815 607.718 700.686 607.658 698.336 608.175C679.701 610.829 666.66 618.5 654.831 633.327C651.207 637.869 638.413 661.903 643 665.902C654.726 666.272 662.931 653.421 669.592 645.851C678.162 636.021 690.721 630.601 703.752 631.108C732.878 632.079 750.918 657.599 749.608 685.368Z"/><path fill="#010101" transform="scale(55.469 55.469)" d="M134.019 546.132C140.925 545.854 148.081 546.01 155.021 545.983C165.643 545.942 176.375 545.803 186.989 546.118C189.846 546.39 193.307 546.59 195.092 549.191C202.029 559.3 194.611 569.789 186.706 575.941C170.954 586.866 151.09 586.567 132.911 587.017C133.594 574.314 132.318 558.49 134.019 546.132ZM133.969 585.678C150.961 585.653 170.666 585.737 185.45 575.569C192.871 570.074 200.765 559.715 194.87 550.585C191.528 545.409 173.917 547.001 167.827 546.983C156.942 546.95 145.804 546.885 134.956 547.151C133.636 559.304 134.733 573.133 133.969 585.678Z"/><path fill="#010101" transform="scale(55.469 55.469)" d="M603.754 209.95C604.357 210.019 604.961 210.092 605.555 210.219C607.695 210.675 609.882 212.165 610.944 214.112C612.404 216.789 612.443 256.254 611.144 259.438C610.239 261.657 608.102 262.396 606.051 263.159C602.977 262.997 597.997 261.574 597.687 257.974C596.493 244.098 596.357 228.609 597.732 214.755C597.952 212.546 602.136 210.661 603.754 209.95Z"/><path fill="#1C001A" transform="scale(55.469 55.469)" d="M603.618 210.943C607.236 211.246 607.768 211.989 610.451 214.614C611.158 223.441 610.913 249.607 610.08 259.418C609.965 260.773 607.03 261.818 605.541 262.292C604.88 262.216 604.229 262.124 603.583 261.963C601.666 261.484 600.148 260.54 599.141 258.8C597.348 255.704 597.236 219.173 598.607 215.054C599.306 212.955 601.781 211.801 603.618 210.943Z"/><path fill="#1C001A" transform="scale(55.469 55.469)" d="M551.895 234.299C552.106 234.345 552.319 234.383 552.528 234.436C557.887 235.819 578.094 255.282 580.877 260.238C581.636 261.59 581.732 263.657 581.194 265.112C580.212 267.768 577.613 269.073 575.251 270.318C569.128 269.224 560.596 258.533 555.648 253.85C549.614 248.139 538.96 239.516 551.895 234.299Z"/><path fill="#1C001A" transform="scale(55.469 55.469)" d="M655.323 234.243C664.341 234.492 665.526 242.609 660.365 247.174C654.204 252.623 642.376 266.933 635.916 270.297C623.798 268.648 626.241 260.535 633.748 254.421C640.917 248.583 647.715 239.484 655.323 234.243Z"/></svg>